<svg xmlns="http://www.w3.org/2000/svg" width="191.669" height="28.939" viewBox="0 0 191.669 28.939">
  <g id="Group_3" data-name="Group 3" transform="translate(-153.139 -387.672)">
    <path id="Path_1" data-name="Path 1" d="M2.139-22.134V0H17.794V-4.092H7.006V-22.134ZM19.871-11.1a5.113,5.113,0,0,1,.775-2.573,5.277,5.277,0,0,1,1.736-1.643,7.565,7.565,0,0,1,2.372-.884,13.483,13.483,0,0,1,2.65-.264,17.963,17.963,0,0,1,2.449.17,7.492,7.492,0,0,1,2.263.667,4.459,4.459,0,0,1,1.674,1.38,3.855,3.855,0,0,1,.651,2.34v8.339a16.747,16.747,0,0,0,.124,2.077A3.754,3.754,0,0,0,35,0H30.535a6.317,6.317,0,0,1-.2-.759,6.613,6.613,0,0,1-.109-.791,5.736,5.736,0,0,1-2.48,1.519A9.954,9.954,0,0,1,24.831.4,7.873,7.873,0,0,1,22.692.124a4.9,4.9,0,0,1-1.736-.868,4.041,4.041,0,0,1-1.163-1.488,5.031,5.031,0,0,1-.418-2.139,4.673,4.673,0,0,1,.48-2.247A4.017,4.017,0,0,1,21.1-8.029a5.556,5.556,0,0,1,1.736-.79A18.532,18.532,0,0,1,24.8-9.238q.992-.155,1.953-.248a11.745,11.745,0,0,0,1.705-.279,2.972,2.972,0,0,0,1.178-.542,1.191,1.191,0,0,0,.4-1.038,2.336,2.336,0,0,0-.232-1.132,1.71,1.71,0,0,0-.62-.651,2.439,2.439,0,0,0-.9-.31,7.356,7.356,0,0,0-1.1-.078,3.341,3.341,0,0,0-2.046.558,2.491,2.491,0,0,0-.868,1.86ZM30.039-7.843a1.975,1.975,0,0,1-.7.387,7.124,7.124,0,0,1-.9.233q-.481.093-1.007.155t-1.054.155a7.949,7.949,0,0,0-.976.248,2.887,2.887,0,0,0-.837.418,1.989,1.989,0,0,0-.573.666,2.144,2.144,0,0,0-.217,1.023,2.071,2.071,0,0,0,.217.992,1.664,1.664,0,0,0,.589.636,2.486,2.486,0,0,0,.868.326,5.54,5.54,0,0,0,1.023.093,3.891,3.891,0,0,0,2.015-.434,2.9,2.9,0,0,0,1.054-1.039,3.321,3.321,0,0,0,.418-1.224,8.412,8.412,0,0,0,.077-.992ZM45.756,1.984l6.7-18.011H47.895l-3.5,10.974H44.33L40.7-16.027H36.022L41.633-.992A2.646,2.646,0,0,1,41.819,0,2.2,2.2,0,0,1,41.4,1.3a1.71,1.71,0,0,1-1.286.682,9.133,9.133,0,0,1-1.3-.031q-.651-.062-1.271-.124V5.456q.682.062,1.349.109t1.348.047a6.384,6.384,0,0,0,3.534-.837A5.421,5.421,0,0,0,45.756,1.984ZM57.846-8a9.619,9.619,0,0,1,.186-1.891,4.825,4.825,0,0,1,.636-1.643,3.569,3.569,0,0,1,1.194-1.162,3.542,3.542,0,0,1,1.86-.45,3.627,3.627,0,0,1,1.875.45,3.525,3.525,0,0,1,1.209,1.162,4.825,4.825,0,0,1,.636,1.643A9.618,9.618,0,0,1,65.627-8a9.386,9.386,0,0,1-.186,1.875,5,5,0,0,1-.636,1.643A3.346,3.346,0,0,1,63.6-3.317a3.73,3.73,0,0,1-1.875.434,3.643,3.643,0,0,1-1.86-.434A3.385,3.385,0,0,1,58.667-4.48a5,5,0,0,1-.636-1.643A9.387,9.387,0,0,1,57.846-8Zm-4.4,0a9.711,9.711,0,0,0,.589,3.472,7.532,7.532,0,0,0,1.674,2.651,7.323,7.323,0,0,0,2.6,1.689A9.368,9.368,0,0,0,61.721.4a9.493,9.493,0,0,0,3.425-.589,7.3,7.3,0,0,0,2.619-1.689A7.532,7.532,0,0,0,69.44-4.526,9.712,9.712,0,0,0,70.029-8a9.839,9.839,0,0,0-.589-3.488,7.505,7.505,0,0,0-1.674-2.666,7.471,7.471,0,0,0-2.619-1.7,9.275,9.275,0,0,0-3.425-.6,9.154,9.154,0,0,0-3.41.6,7.5,7.5,0,0,0-2.6,1.7,7.505,7.505,0,0,0-1.674,2.666A9.839,9.839,0,0,0,53.444-8ZM87.916,0V-16.027h-4.4v8.4a5.946,5.946,0,0,1-.806,3.519,3.05,3.05,0,0,1-2.6,1.069,2.4,2.4,0,0,1-2.2-.977,5.617,5.617,0,0,1-.62-2.96v-9.052h-4.4v9.858a12.918,12.918,0,0,0,.263,2.713,5.159,5.159,0,0,0,.914,2.077A4.183,4.183,0,0,0,75.841-.062,7.7,7.7,0,0,0,78.74.4a6.4,6.4,0,0,0,2.728-.62,4.952,4.952,0,0,0,2.17-2.015h.093V0Zm8.928-16.027v-4.8h-4.4v4.8H89.776v2.945h2.666v9.455a4.1,4.1,0,0,0,.4,1.953,2.872,2.872,0,0,0,1.1,1.147,4.569,4.569,0,0,0,1.612.543,12.851,12.851,0,0,0,1.938.14q.651,0,1.333-.031A10.475,10.475,0,0,0,100.068,0V-3.41a6.167,6.167,0,0,1-.651.093q-.341.031-.713.031a2.154,2.154,0,0,1-1.488-.372,2.154,2.154,0,0,1-.372-1.488v-7.936h3.224v-2.945Z" transform="translate(151 411)"/>
    <path id="Path_2" data-name="Path 2" d="M3.328-7.52H1.152A8.076,8.076,0,0,0,1.712-3.9,6.273,6.273,0,0,0,3.584-1.44,8.061,8.061,0,0,0,6.528-.016a14.4,14.4,0,0,0,3.744.464A14.118,14.118,0,0,0,13.728.08a8.912,8.912,0,0,0,2.416-.96A5.442,5.442,0,0,0,17.68-2.208a6.775,6.775,0,0,0,.864-1.456,5.164,5.164,0,0,0,.384-1.36,8.683,8.683,0,0,0,.08-1.024,5.633,5.633,0,0,0-.464-2.4,4.862,4.862,0,0,0-1.28-1.68,7.572,7.572,0,0,0-1.888-1.152,16.008,16.008,0,0,0-2.288-.784L7.52-13.44a8.394,8.394,0,0,1-1.328-.416,3.974,3.974,0,0,1-1.1-.672,2.942,2.942,0,0,1-.752-1.008,3.307,3.307,0,0,1-.272-1.392,4.366,4.366,0,0,1,.48-2.144,3.976,3.976,0,0,1,1.264-1.392,5.409,5.409,0,0,1,1.824-.768,9.576,9.576,0,0,1,2.16-.24,7.924,7.924,0,0,1,2.32.336,6.022,6.022,0,0,1,1.952.992,5.109,5.109,0,0,1,1.376,1.632,5.293,5.293,0,0,1,.592,2.288h2.176a6.622,6.622,0,0,0-.688-3.088,6.661,6.661,0,0,0-1.84-2.224,7.956,7.956,0,0,0-2.688-1.344,11.486,11.486,0,0,0-3.232-.448,9.682,9.682,0,0,0-3.936.688,6.989,6.989,0,0,0-2.416,1.68,5.426,5.426,0,0,0-1.2,2.112,7.249,7.249,0,0,0-.32,1.952,5.363,5.363,0,0,0,.432,2.272,4.863,4.863,0,0,0,1.136,1.568A5.511,5.511,0,0,0,5.1-12.032a15.236,15.236,0,0,0,1.936.64l5.088,1.248a14.873,14.873,0,0,1,1.632.5,6.6,6.6,0,0,1,1.52.784A3.95,3.95,0,0,1,16.4-7.68a3.118,3.118,0,0,1,.432,1.664,3.651,3.651,0,0,1-.608,2.128,5.021,5.021,0,0,1-1.52,1.44,6.8,6.8,0,0,1-1.968.816,8.326,8.326,0,0,1-1.952.256,13.627,13.627,0,0,1-2.944-.3A6.6,6.6,0,0,1,5.456-2.688,4.827,4.827,0,0,1,3.872-4.576,6.431,6.431,0,0,1,3.328-7.52ZM25.28-16.512v-4.96H23.264v4.96h-2.88v1.7h2.88v11.3a3.948,3.948,0,0,0,.768,2.9A3.986,3.986,0,0,0,26.848.16q.448,0,.9-.032T28.64.1V-1.6a15.636,15.636,0,0,1-1.728.1q-1.088-.064-1.36-.624A3.616,3.616,0,0,1,25.28-3.68V-14.816h3.36v-1.7ZM44.928,0V-16.512H42.912V-7.84a10.453,10.453,0,0,1-.288,2.448,6.7,6.7,0,0,1-.9,2.128,4.757,4.757,0,0,1-1.536,1.488,4.257,4.257,0,0,1-2.24.56,4.228,4.228,0,0,1-3.376-1.152,5.375,5.375,0,0,1-1.04-3.392V-16.512H31.52v10.72a9.821,9.821,0,0,0,.32,2.624,5,5,0,0,0,1.008,1.952A4.451,4.451,0,0,0,34.64.016a7.344,7.344,0,0,0,2.672.432,6.616,6.616,0,0,0,3.376-.88,5.722,5.722,0,0,0,2.32-2.544h.064V0ZM63.264,0V-22.848H61.248v9.472h-.064a4.773,4.773,0,0,0-.912-1.568,5.8,5.8,0,0,0-1.36-1.136,6.059,6.059,0,0,0-1.648-.688,7.3,7.3,0,0,0-1.808-.224,7.183,7.183,0,0,0-3.28.7,6.729,6.729,0,0,0-2.32,1.9A8.1,8.1,0,0,0,48.48-11.6a12.232,12.232,0,0,0-.448,3.344,12.232,12.232,0,0,0,.448,3.344,8.1,8.1,0,0,0,1.376,2.784A6.569,6.569,0,0,0,52.176-.24a7.323,7.323,0,0,0,3.28.688A6.666,6.666,0,0,0,57.264.192a7.363,7.363,0,0,0,1.712-.72A6.126,6.126,0,0,0,60.4-1.664a4.744,4.744,0,0,0,.944-1.472h.064V0ZM50.048-8.256a10.843,10.843,0,0,1,.3-2.544,7.033,7.033,0,0,1,.96-2.256,5.287,5.287,0,0,1,1.68-1.616,4.647,4.647,0,0,1,2.464-.624,5.421,5.421,0,0,1,2.7.624,5.343,5.343,0,0,1,1.792,1.616,6.643,6.643,0,0,1,.992,2.256,10.843,10.843,0,0,1,.3,2.544,10.843,10.843,0,0,1-.3,2.544,6.643,6.643,0,0,1-.992,2.256A5.343,5.343,0,0,1,58.16-1.84a5.421,5.421,0,0,1-2.7.624,4.647,4.647,0,0,1-2.464-.624,5.287,5.287,0,0,1-1.68-1.616,7.033,7.033,0,0,1-.96-2.256A10.843,10.843,0,0,1,50.048-8.256ZM67.136-22.848v3.232h2.016v-3.232Zm0,6.336V0h2.016V-16.512ZM80-15.3a5.1,5.1,0,0,1,2.528.608,5.55,5.55,0,0,1,1.808,1.6,7.259,7.259,0,0,1,1.088,2.256,9.17,9.17,0,0,1,.368,2.576,9.17,9.17,0,0,1-.368,2.576,7.259,7.259,0,0,1-1.088,2.256,5.55,5.55,0,0,1-1.808,1.6A5.1,5.1,0,0,1,80-1.216a5.1,5.1,0,0,1-2.528-.608,5.55,5.55,0,0,1-1.808-1.6A7.259,7.259,0,0,1,74.576-5.68a9.17,9.17,0,0,1-.368-2.576,9.17,9.17,0,0,1,.368-2.576,7.259,7.259,0,0,1,1.088-2.256,5.55,5.55,0,0,1,1.808-1.6A5.1,5.1,0,0,1,80-15.3Zm0-1.7a7.591,7.591,0,0,0-3.344.7A7.285,7.285,0,0,0,74.208-14.4a8.172,8.172,0,0,0-1.5,2.768,10.911,10.911,0,0,0-.512,3.376A10.911,10.911,0,0,0,72.7-4.88a8.172,8.172,0,0,0,1.5,2.768A7.11,7.11,0,0,0,76.656-.24,7.741,7.741,0,0,0,80,.448,7.741,7.741,0,0,0,83.344-.24a7.11,7.11,0,0,0,2.448-1.872A8.171,8.171,0,0,0,87.3-4.88a10.911,10.911,0,0,0,.512-3.376,10.911,10.911,0,0,0-.512-3.376,8.171,8.171,0,0,0-1.5-2.768,7.284,7.284,0,0,0-2.448-1.888A7.591,7.591,0,0,0,80-16.992Z" transform="translate(257 411)"/>
  </g>
</svg>
