<svg width="57" height="56" viewBox="0 0 57 56" fill="none" xmlns="http://www.w3.org/2000/svg">
<rect x="0.5" width="56" height="56" rx="6" fill="white"/>
<path fill-rule="evenodd" clip-rule="evenodd" d="M35.5 31C36.0523 31 36.5 31.4477 36.5 32V34H38.5C39.0523 34 39.5 34.4477 39.5 35C39.5 35.5523 39.0523 36 38.5 36H36.5V38C36.5 38.5523 36.0523 39 35.5 39C34.9477 39 34.5 38.5523 34.5 38V36H32.5C31.9477 36 31.5 35.5523 31.5 35C31.5 34.4477 31.9477 34 32.5 34H34.5V32C34.5 31.4477 34.9477 31 35.5 31Z" fill="#12131A"/>
<path d="M25.5 27C26.6046 27 27.5 26.1046 27.5 25C27.5 23.8954 26.6046 23 25.5 23C24.3954 23 23.5 23.8954 23.5 25C23.5 26.1046 24.3954 27 25.5 27Z" fill="#12131A"/>
<path d="M31.4098 29.0126C31.4873 28.9919 31.5687 28.9902 31.647 29.0076C31.6573 29.0099 31.7147 29.0225 31.9693 29.182C32.4373 29.4752 33.0544 29.3335 33.3476 28.8654C33.6408 28.3974 33.499 27.7803 33.031 27.4871C32.7539 27.3135 32.4495 27.137 32.0801 27.055C31.6885 26.9682 31.2817 26.9768 30.8942 27.0803C30.4492 27.199 30.0636 27.4756 29.6793 27.7513L29.5862 27.818L27.0806 29.607C26.6014 29.9491 26.542 29.9765 26.5013 29.989C26.4327 30.0101 26.3603 30.0162 26.2891 30.0068C26.247 30.0012 26.1838 29.9841 25.6544 29.7265L25.1261 29.4693L25.0429 29.4287C24.6943 29.2583 24.3436 29.0868 23.9623 29.0288C23.6294 28.9782 23.2897 28.9953 22.9637 29.0792C22.5901 29.1753 22.2585 29.3812 21.9288 29.5859L21.8502 29.6347L19.9742 30.7946C19.5045 31.0851 19.3591 31.7014 19.6496 32.1711C19.9401 32.6408 20.5563 32.7862 21.0261 32.4957L22.902 31.3358C23.367 31.0482 23.4231 31.0262 23.4619 31.0162C23.5271 30.9994 23.5951 30.996 23.6616 31.0061C23.7013 31.0121 23.7593 31.0284 24.2509 31.2677L24.7792 31.5248L24.869 31.5686C25.2434 31.7518 25.6198 31.9359 26.0278 31.9896C26.3838 32.0366 26.7457 32.0062 27.0889 31.9008C27.4823 31.7798 27.8228 31.5357 28.1615 31.2928L28.2427 31.2347L30.7484 29.4457C31.2949 29.0555 31.3644 29.0248 31.4098 29.0126Z" fill="#12131A"/>
<path fill-rule="evenodd" clip-rule="evenodd" d="M26.8572 19H30.1428C31.2266 19 32.1007 19 32.8086 19.0578C33.5375 19.1174 34.1777 19.2432 34.77 19.545C35.7108 20.0243 36.4757 20.7892 36.955 21.73C37.2568 22.3223 37.3826 22.9625 37.4422 23.6914C37.5 24.3993 37.5 25.2734 37.5 26.3572V28C37.5 28.5523 37.0523 29 36.5 29C35.9477 29 35.5 28.5523 35.5 28V26.4C35.5 25.2634 35.4992 24.4711 35.4488 23.8542C35.3994 23.2491 35.3072 22.9014 35.173 22.638C34.8854 22.0735 34.4265 21.6146 33.862 21.327C33.5986 21.1928 33.2509 21.1006 32.6458 21.0512C32.0289 21.0008 31.2366 21 30.1 21H26.9C25.7634 21 24.9711 21.0008 24.3542 21.0512C23.7491 21.1006 23.4014 21.1928 23.138 21.327C22.5735 21.6146 22.1146 22.0735 21.827 22.638C21.6928 22.9014 21.6006 23.2491 21.5512 23.8542C21.5008 24.4711 21.5 25.2634 21.5 26.4V29.6C21.5 30.7366 21.5008 31.5289 21.5512 32.1458C21.6006 32.7509 21.6928 33.0986 21.827 33.362C22.1146 33.9265 22.5735 34.3854 23.138 34.673C23.4014 34.8072 23.7491 34.8994 24.3542 34.9488C24.9711 34.9992 25.7634 35 26.9 35H28.5C29.0523 35 29.5 35.4477 29.5 36C29.5 36.5523 29.0523 37 28.5 37H26.8572C25.7734 37 24.8993 37 24.1914 36.9422C23.4625 36.8826 22.8223 36.7568 22.23 36.455C21.2892 35.9757 20.5243 35.2108 20.045 34.27C19.7432 33.6777 19.6174 33.0375 19.5578 32.3086C19.5 31.6007 19.5 30.7266 19.5 29.6428V26.3572C19.5 25.2734 19.5 24.3993 19.5578 23.6914C19.6174 22.9625 19.7432 22.3223 20.045 21.73C20.5243 20.7892 21.2892 20.0243 22.23 19.545C22.8223 19.2432 23.4625 19.1174 24.1914 19.0578C24.8993 19 25.7734 19 26.8572 19Z" fill="#12131A"/>
</svg>
