<svg width="63" height="62" viewBox="0 0 63 62" fill="none" xmlns="http://www.w3.org/2000/svg">
<rect x="0.666748" width="62" height="62" rx="31" fill="#B6D7FF"/>
<path fill-rule="evenodd" clip-rule="evenodd" d="M34.3579 21.1106C33.8952 20.9995 33.4154 20.9997 32.7804 21L29.4255 21.0001C28.6205 21 27.9561 21 27.4149 21.0443C26.8528 21.0902 26.3361 21.1887 25.8508 21.436C25.0981 21.8195 24.4862 22.4315 24.1027 23.1841C23.8554 23.6694 23.7569 24.1861 23.7109 24.7482C23.6667 25.2894 23.6667 25.9538 23.6667 26.7587V35.2414C23.6667 36.0463 23.6667 36.7107 23.7109 37.2519C23.7569 37.814 23.8554 38.3307 24.1027 38.816C24.4862 39.5687 25.0981 40.1806 25.8508 40.5641C26.3361 40.8114 26.8528 40.9099 27.4149 40.9559C27.9561 41.0001 28.6205 41.0001 29.4254 41.0001H33.9081C34.713 41.0001 35.3774 41.0001 35.9186 40.9559C36.4807 40.9099 36.9974 40.8114 37.4827 40.5641C38.2354 40.1806 38.8473 39.5687 39.2308 38.816C39.4781 38.3307 39.5766 37.814 39.6226 37.2519C39.6668 36.7107 39.6668 36.0463 39.6667 35.2414L39.6668 27.8864C39.6671 27.2514 39.6673 26.7716 39.5562 26.3089C39.4582 25.9008 39.2966 25.5106 39.0773 25.1527C38.8287 24.747 38.4893 24.4079 38.04 23.9591L36.7077 22.6268C36.2589 22.1776 35.9198 21.8381 35.5141 21.5895C35.1562 21.3702 34.766 21.2086 34.3579 21.1106ZM32.6667 23.0001H29.4667C28.6102 23.0001 28.0279 23.0008 27.5778 23.0376C27.1394 23.0734 26.9152 23.1384 26.7588 23.2181C26.3824 23.4098 26.0765 23.7158 25.8847 24.0921C25.805 24.2485 25.7401 24.4727 25.7043 24.9111C25.6675 25.3612 25.6667 25.9435 25.6667 26.8001V35.2001C25.6667 36.0566 25.6675 36.6389 25.7043 37.089C25.7401 37.5274 25.805 37.7516 25.8847 37.908C26.0765 38.2844 26.3824 38.5903 26.7588 38.7821C26.9152 38.8618 27.1394 38.9267 27.5778 38.9625C28.0279 38.9993 28.6102 39.0001 29.4668 39.0001H33.8667C34.7233 39.0001 35.3056 38.9993 35.7557 38.9625C36.1941 38.9267 36.4183 38.8618 36.5747 38.7821C36.9511 38.5903 37.257 38.2844 37.4488 37.908C37.5285 37.7516 37.5934 37.5274 37.6292 37.089C37.666 36.6389 37.6667 36.0566 37.6667 35.2001V28H35.6667C34.0099 28 32.6667 26.6569 32.6667 25V23.0001ZM37.2267 26C37.1065 25.8579 36.9146 25.6621 36.5538 25.3013L35.3655 24.1131C35.0046 23.7522 34.8089 23.5603 34.6667 23.4401V25C34.6667 25.5523 35.1145 26 35.6667 26H37.2267Z" fill="white"/>
<path d="M29.6667 32C29.6667 32.5523 29.219 33 28.6667 33C28.1145 33 27.6667 32.5523 27.6667 32C27.6667 31.4477 28.1145 31 28.6667 31C29.219 31 29.6667 31.4477 29.6667 32Z" fill="white"/>
<path d="M32.6667 31C32.1145 31 31.6667 31.4477 31.6667 32C31.6667 32.5523 32.1145 33 32.6667 33H34.6667C35.219 33 35.6667 32.5523 35.6667 32C35.6667 31.4477 35.219 31 34.6667 31H32.6667Z" fill="white"/>
<path d="M32.6667 35C32.1145 35 31.6667 35.4477 31.6667 36C31.6667 36.5523 32.1145 37 32.6667 37H34.6667C35.219 37 35.6667 36.5523 35.6667 36C35.6667 35.4477 35.219 35 34.6667 35H32.6667Z" fill="white"/>
<path d="M28.6667 37C29.219 37 29.6667 36.5523 29.6667 36C29.6667 35.4477 29.219 35 28.6667 35C28.1145 35 27.6667 35.4477 27.6667 36C27.6667 36.5523 28.1145 37 28.6667 37Z" fill="white"/>
</svg>
