<svg width="63" height="62" viewBox="0 0 63 62" fill="none" xmlns="http://www.w3.org/2000/svg">
<rect x="0.333252" width="62" height="62" rx="31" fill="#AFE2B8"/>
<path fill-rule="evenodd" clip-rule="evenodd" d="M28.3333 35C26.6764 35 25.3333 36.3431 25.3333 38C25.3333 38.5523 25.781 39 26.3333 39H36.3333C36.8855 39 37.3333 38.5523 37.3333 38C37.3333 36.3431 35.9901 35 34.3333 35H28.3333ZM23.3333 38C23.3333 35.2386 25.5718 33 28.3333 33H34.3333C37.0947 33 39.3333 35.2386 39.3333 38C39.3333 39.6569 37.9901 41 36.3333 41H26.3333C24.6764 41 23.3333 39.6569 23.3333 38Z" fill="white"/>
<path fill-rule="evenodd" clip-rule="evenodd" d="M31.3333 23C29.6764 23 28.3333 24.3431 28.3333 26C28.3333 27.6569 29.6764 29 31.3333 29C32.9901 29 34.3333 27.6569 34.3333 26C34.3333 24.3431 32.9901 23 31.3333 23ZM26.3333 26C26.3333 23.2386 28.5718 21 31.3333 21C34.0947 21 36.3333 23.2386 36.3333 26C36.3333 28.7614 34.0947 31 31.3333 31C28.5718 31 26.3333 28.7614 26.3333 26Z" fill="white"/>
</svg>
