<svg width="62" height="62" viewBox="0 0 62 62" fill="none" xmlns="http://www.w3.org/2000/svg">
<rect width="62" height="62" rx="31" fill="#FFB6B6"/>
<path fill-rule="evenodd" clip-rule="evenodd" d="M22.1643 25.6849C22.37 24.4916 23.0516 23.5343 23.7858 22.8001C24.9589 21.6271 26.8993 21.7665 27.8926 23.0952L29.514 25.2642C30.4069 26.4585 30.287 28.1273 29.2326 29.1818L29.1214 29.2929C28.7309 29.6834 28.7309 30.3166 29.1214 30.7071L31.293 32.8787C31.6835 33.2692 32.3167 33.2692 32.7072 32.8787L32.8184 32.7675C33.8728 31.7131 35.5416 31.5932 36.736 32.4861L38.9213 34.1197C40.2414 35.1066 40.3799 37.0345 39.2144 38.1999C38.4721 38.9422 37.5043 39.6349 36.2963 39.8435C34.0722 40.2275 29.8094 40.2235 25.793 36.2071C21.7747 32.1889 21.7817 27.9035 22.1643 25.6849ZM25.2 24.2143C24.6239 24.7904 24.2443 25.392 24.1352 26.0248C23.8267 27.8139 23.7814 31.3671 27.2072 34.7929C30.6346 38.2203 34.168 38.1814 35.956 37.8727C36.6009 37.7613 37.2129 37.373 37.8002 36.7857C38.1041 36.4817 38.068 35.979 37.7237 35.7216L35.5384 34.0879C35.1403 33.7903 34.5841 33.8303 34.2326 34.1817L34.1214 34.2929C32.9498 35.4645 31.0503 35.4645 29.8788 34.2929L27.7072 32.1213C26.5356 30.9498 26.5356 29.0503 27.7072 27.8787L27.8184 27.7675C28.1698 27.4161 28.2098 26.8598 27.9122 26.4617L26.2907 24.2927C26.0269 23.9398 25.5116 23.9028 25.2 24.2143Z" fill="white"/>
<path fill-rule="evenodd" clip-rule="evenodd" d="M34.2929 22.2929C34.6834 21.9024 35.3166 21.9024 35.7071 22.2929L37 23.5858L38.2929 22.2929C38.6834 21.9024 39.3166 21.9024 39.7071 22.2929C40.0976 22.6834 40.0976 23.3166 39.7071 23.7071L38.4142 25L39.7071 26.2929C40.0976 26.6834 40.0976 27.3166 39.7071 27.7071C39.3166 28.0976 38.6834 28.0976 38.2929 27.7071L37 26.4142L35.7071 27.7071C35.3166 28.0976 34.6834 28.0976 34.2929 27.7071C33.9024 27.3166 33.9024 26.6834 34.2929 26.2929L35.5858 25L34.2929 23.7071C33.9024 23.3166 33.9024 22.6834 34.2929 22.2929Z" fill="white"/>
</svg>
