<svg width="18" height="18" viewBox="0 0 18 18" fill="none" xmlns="http://www.w3.org/2000/svg">
<path d="M1.5 3.75C1.5 3.33579 1.83579 3 2.25 3H15.75C16.1642 3 16.5 3.33579 16.5 3.75C16.5 4.16421 16.1642 4.5 15.75 4.5H2.25C1.83579 4.5 1.5 4.16421 1.5 3.75Z" fill="black"/>
<path d="M1.5 14.25C1.5 13.8358 1.83579 13.5 2.25 13.5H15.75C16.1642 13.5 16.5 13.8358 16.5 14.25C16.5 14.6642 16.1642 15 15.75 15H2.25C1.83579 15 1.5 14.6642 1.5 14.25Z" fill="black"/>
<path d="M2.25 8.25C1.83579 8.25 1.5 8.58579 1.5 9C1.5 9.41421 1.83579 9.75 2.25 9.75H15.75C16.1642 9.75 16.5 9.41421 16.5 9C16.5 8.58579 16.1642 8.25 15.75 8.25H2.25Z" fill="black"/>
</svg>
