<svg width="19" height="19" viewBox="0 0 19 19" fill="none" xmlns="http://www.w3.org/2000/svg">
<path fill-rule="evenodd" clip-rule="evenodd" d="M0.164024 3.68493C0.369786 2.49156 1.05138 1.53428 1.78556 0.800109C2.95862 -0.372922 4.89903 -0.233494 5.89233 1.09519L7.5138 3.26415C8.40666 4.45849 8.28676 6.12732 7.23233 7.18175L7.12117 7.29291C6.73064 7.68344 6.73064 8.3166 7.12117 8.70713L9.29274 10.8787C9.68326 11.2692 10.3164 11.2692 10.707 10.8787L10.8181 10.7675C11.8725 9.71311 13.5414 9.5932 14.7357 10.4861L16.921 12.1197C18.2411 13.1066 18.3796 15.0345 17.2142 16.1999C16.4718 16.9422 15.5041 17.6349 14.2961 17.8435C12.072 18.2275 7.80915 18.2235 3.79274 14.2071C-0.225532 10.1889 -0.218506 5.90351 0.164024 3.68493ZM3.19976 2.21434C2.62364 2.79045 2.24404 3.39204 2.13494 4.02476C1.82646 5.8139 1.78118 9.36714 5.20695 12.7929C8.63434 16.2203 12.1677 16.1814 13.9558 15.8727C14.6007 15.7613 15.2127 15.373 15.8 14.7857C16.1039 14.4817 16.0678 13.979 15.7235 13.7216L13.5382 12.0879C13.1401 11.7903 12.5838 11.8303 12.2323 12.1817L12.1212 12.2929C10.9496 13.4645 9.0501 13.4645 7.87852 12.2929L5.70695 10.1213C4.53538 8.94977 4.53538 7.05027 5.70695 5.8787L5.81812 5.76754C6.16959 5.41606 6.20956 4.85978 5.91194 4.46167L4.29047 2.29271C4.02666 1.93982 3.51131 1.9028 3.19976 2.21434Z" fill="#004DE6"/>
</svg>
